<?xml version="1.0" encoding="UTF-8"?>
<svg xmlns="http://www.w3.org/2000/svg" version="1.1" xmlns:xlink="http://www.w3.org/1999/xlink" viewBox="0 0 508.29 148.33">
  <!-- Generator: Adobe Illustrator 29.3.1, SVG Export Plug-In . SVG Version: 2.1.0 Build 151)  -->
  <defs>
    <style>
      .st0 {
        fill: url(#linear-gradient2);
      }

      .st1 {
        fill: #ffc107;
      }

      .st2 {
        fill: url(#linear-gradient1);
      }

      .st3 {
        fill: url(#linear-gradient9);
      }

      .st4 {
        fill: url(#linear-gradient8);
      }

      .st5 {
        fill: #1e88e5;
      }

      .st6 {
        mix-blend-mode: multiply;
        opacity: .35;
      }

      .st6, .st7 {
        fill: #e08172;
      }

      .st8 {
        isolation: isolate;
      }

      .st9 {
        fill: url(#linear-gradient7);
      }

      .st10 {
        fill: url(#linear-gradient4);
      }

      .st11 {
        fill: url(#linear-gradient5);
      }

      .st12 {
        fill: url(#linear-gradient3);
      }

      .st13 {
        fill: url(#linear-gradient6);
      }

      .st14 {
        fill: #f8917f;
        mix-blend-mode: screen;
        opacity: .68;
      }

      .st15 {
        fill: url(#linear-gradient);
      }
    </style>
    <linearGradient id="linear-gradient" x1="411.26" y1="38.42" x2="411.99" y2="49.82" gradientUnits="userSpaceOnUse">
      <stop offset="0" stop-color="#f39067"/>
      <stop offset=".37" stop-color="#ea8560"/>
      <stop offset="1" stop-color="#d46951"/>
    </linearGradient>
    <linearGradient id="linear-gradient1" x1="393.28" y1="68.68" x2="427.25" y2="68.68" gradientUnits="userSpaceOnUse">
      <stop offset="0" stop-color="#f8c5a1"/>
      <stop offset=".73" stop-color="#f9ba9a"/>
      <stop offset="1" stop-color="#fab597"/>
    </linearGradient>
    <linearGradient id="linear-gradient2" x1="414.53" y1="37.92" x2="418.51" y2="37.92" gradientUnits="userSpaceOnUse">
      <stop offset="0" stop-color="#f7b08a"/>
      <stop offset=".39" stop-color="#f1a582"/>
      <stop offset="1" stop-color="#e38c72"/>
    </linearGradient>
    <linearGradient id="linear-gradient3" x1="418.93" y1="76.99" x2="427.25" y2="76.99" xlink:href="#linear-gradient2"/>
    <linearGradient id="linear-gradient4" x1="406.88" y1="85.45" x2="410.8" y2="38.07" xlink:href="#linear-gradient2"/>
    <linearGradient id="linear-gradient5" x1="411.13" y1="51.41" x2="408.57" y2="55.05" xlink:href="#linear-gradient1"/>
    <linearGradient id="linear-gradient6" x1="398.28" y1="53.13" x2="406.32" y2="57.13" xlink:href="#linear-gradient2"/>
    <linearGradient id="linear-gradient7" x1="404.37" y1="58.06" x2="401.14" y2="62.88" xlink:href="#linear-gradient1"/>
    <linearGradient id="linear-gradient8" x1="394.48" y1="67.97" x2="400.6" y2="62.97" xlink:href="#linear-gradient2"/>
    <linearGradient id="linear-gradient9" x1="401.53" y1="70.55" x2="406.91" y2="66.58" xlink:href="#linear-gradient2"/>
  </defs>
  <g class="st8">
    <g id="Capa_1">
      <g>
        <g>
          <g>
            <path class="st15" d="M409.14,62.37c-3.69-10.25-2.92-18.2,0-24.46,2.92-6.26,4.2-6.36,5.44-6.1,1.23.26,2.36,1.23,1.64,7.28-.72,6.05-1.03,7.54.46,14.46,1.49,6.92-7.54,8.82-7.54,8.82Z"/>
            <path class="st2" d="M423.44,82.56s-.31,8.72,2.36,16.15c-1.86,1.54-3.75,2.72-5.62,3.59-4.66,2.18-9.17,2.53-12.87,2.17h0c-5.33-.51-8.99-2.47-8.99-2.47,0,0,3.33-7.59-.26-15.79-3.95-7.23-6.15-14.67-3.85-23.59,2.29-8.87,9.1-6.38,8.27-11.53,0-.02,0-.06,0-.08-.92-5.26-.3-8.88,3.39-14.13.87-1.23,1.65-2.15,2.35-2.81,1.32-1.25,2.36-1.54,3.17-1.16.6.27,1.53.79,1.5,1.81-.07,3.15-2.55,6.67-2.55,6.67,0,0,.46,3.2-1.39,4.47.66,2.46.81,4.46-.15,7.23-.96,2.76-.11,3.84,2.39,7.23,2.43-4.5,4.02-4.73,4.02-4.73,0,0-1.59-2.36-3.31-7.33-1.72-4.97-.47-8.28,1.02-11.46.55-1.16,1.21-1.91,1.86-2.32,1.12-.71,2.22-.42,2.63.43.02.06.06.12.08.2.32.92.53,3.12,1.04,5.43.41,1.84,1,3.76,1.98,5.17.66,2.31,1.57,4.32,2.48,5.99,1.56,2.83,3.11,4.68,3.4,5.36.46,1.08,1.23,5.79.71,14.51-.51,8.72-3.64,11.02-3.64,11.02Z"/>
            <path class="st0" d="M418.51,40.51c-.8.58-1.98.92-3.37.61-.1-.02-.22-.06-.33-.09-.47-2.43-.32-4.51.33-5.58.5-.82,1.54-1.26,2.34-.37.29.84.49,2.73.91,4.81.04.2.08.41.13.62Z"/>
            <path class="st12" d="M423.44,82.56s-.31,8.72,2.36,16.15c-1.86,1.54-3.75,2.72-5.62,3.59,1.91-3.53,1.91-7.83,1.91-11.86,0-4.5-3.17-6.09-3.17-6.09,0,0,5.44-4.82,6.57-8.56.56-5.67-.02-13.37-2.53-24.12,1.56,2.83,3.11,4.68,3.4,5.36.46,1.08,1.23,5.79.71,14.51-.51,8.72-3.64,11.02-3.64,11.02Z"/>
            <path class="st10" d="M423.88,61.16c-2.42-2.43-8.68-5.59-9.28-3.61-.59,1.97.15,3.61-1.72,6.05-1.87,2.43-3.17,8.28-1.82,12.33-2.02-1.31-1.9-5.92-2.08-6.82-.18-.9-1.69-.9-2.67.07-.97.98-2.2,1.57-4.55.77-2.35-.8-1.65-4.84-1.82-5.36-.18-.51-2.24-4.43-3.87-2.8-1.64,1.64-1.46,6.62,3.08,11.16,4.54,4.54.65,12.49,8.45,12.92-4.9,10.14-4.64,12.99-.28,18.6-5.33-.51-8.99-2.47-8.99-2.47,0,0,3.33-7.59-.26-15.79-3.95-7.23-6.15-14.67-3.85-23.59,2.29-8.87,9.1-6.38,8.27-11.53.87-.52,1.65-1,2.15-1.37,1.83-1.29,1.45-2.15-.04-2.5-1.48-.35.31-.96,2.06-2.69,1.74-1.74-.76-2.65,1.3-3.62,2.06-.97,4.55-4.97,2.09-6.43-.58-.35-1.2-.45-1.83-.41,1.32-1.25,2.36-1.54,3.17-1.16.6.27,1.53.79,1.5,1.81-.07,3.15-2.55,6.67-2.55,6.67,0,0,.46,3.2-1.39,4.47.66,2.46.81,4.46-.15,7.23-.96,2.76-.11,3.84,2.39,7.23,2.43-4.5,4.02-4.73,4.02-4.73,0,0-1.59-2.36-3.31-7.33-1.72-4.97-.47-8.28,1.02-11.46.55-1.16,1.21-1.91,1.86-2.32-.88.98-1.41,2.4-2.09,4.66-1.14,3.8,2.69,7.64,2.69,7.64,0,0-1.36,2.77.97,7.25,2.34,4.49,4.56,3.33,7.53,7.16Z"/>
            <path class="st11" d="M413.83,58.11s-.22.75-.61,1.84c-.59,1.65-1.53,4.09-2.64,5.98-1.85,3.16-4.59-.59-4.59-.59,0,0,1.53-12.52-6.31-10.39,1.92-5.23,4.61-6.27,4.61-6.27,0,0,1-.41,2.35-.47.47-.02.97,0,1.49.08,4.42,3.04,5.69,9.81,5.69,9.81Z"/>
            <path class="st13" d="M413.22,59.95c-.59,1.65-1.53,4.09-2.64,5.98-1.85,3.16-4.59-.59-4.59-.59,0,0,1.53-12.52-6.31-10.39,1.92-5.23,4.61-6.27,4.61-6.27,0,0,1-.41,2.35-.47-2.95,1.32-4.92,4.06-2.88,4.06,2.2,0,4.05,1.09,4.98,4.31.87,2.97,2.01,4.44,4.47,3.36Z"/>
            <path class="st9" d="M409.45,62.7c-.24.86-.55,1.61-.86,2.27-.34.71-.69,1.29-1,1.73-.47.7-.84,1.06-.84,1.06,0,0-1.85.67-3,.54-.02,0-.04,0-.06,0-2.06-1.64-2.37-2.72-1.87-5.16-1.6-.33-1.79-1.79-1.79-1.79,0,0-1.67-.48-2.61-2.18-1.97,1.41-3.46,4.49-3.46,4.49.24-3.37,1.55-5.8,2.35-7h0c.37-.55.62-.83.62-.83,0,0,4.13-2.31,7.13-2.64,1.44,0,2.39,1.12,2.39,1.12,0,0,2.8,3.44,3,8.39Z"/>
            <path class="st4" d="M408.59,64.96c-.34.71-.69,1.29-1,1.73-.47.7-.84,1.06-.84,1.06,0,0-1.85.67-3,.54-.02,0-.04,0-.06,0-2.06-1.64-2.37-2.72-1.87-5.16-1.6-.33-1.79-1.79-1.79-1.79,0,0-1.67-.48-2.61-2.18-1.97,1.41-3.46,4.49-3.46,4.49.24-3.37,1.55-5.8,2.35-7-.37,1.57.51,1.93,1.78,1.05,1.77-1.21,2.39-.65,2.39,1.12s.95,2.77,3.29,3.21c2.34.43,1.89.36.84,1.85-.88,1.25,1.84,2.46,3.99,1.08Z"/>
            <path class="st3" d="M407.59,66.69c-.47.7-.84,1.06-.84,1.06,0,0-1.85.67-3,.54.4-.82,1.2-1.33,1.2-1.33.69.23,1.66.14,2.63-.27Z"/>
            <path class="st7" d="M417.93,84.39c.83-.3,1.66-.52,2.49-.76.83-.23,1.65-.46,2.49-.73-.34.29-.74.49-1.14.67-.4.19-.82.32-1.24.44-.42.12-.85.21-1.28.27-.43.06-.87.11-1.31.1Z"/>
            <path class="st7" d="M398.83,86.57c1.79.06,3.57.11,5.33-.07,1.76-.17,3.49-.57,5.08-1.4-1.43,1.1-3.26,1.62-5.04,1.8-1.8.17-3.61.03-5.37-.33Z"/>
            <path class="st7" d="M409.34,67.72c.04,1.68-.06,3.37.21,5,.14.81.4,1.59.8,2.3.4.72.95,1.36,1.52,1.97-.69-.49-1.31-1.09-1.78-1.81-.49-.71-.79-1.55-.94-2.4-.14-.85-.16-1.71-.11-2.55.05-.84.14-1.68.29-2.51Z"/>
            <path class="st7" d="M415.19,55.57c1.75.63,3.45,1.41,5.05,2.37.8.49,1.57,1.01,2.28,1.64.7.62,1.35,1.32,1.79,2.15-1.17-1.45-2.7-2.49-4.27-3.44-1.57-.96-3.22-1.8-4.84-2.71Z"/>
            <path class="st7" d="M418.1,46.69c.38-.2.75-.29,1.12-.4.38-.09.74-.16,1.15-.24-.12.18-.3.3-.48.4-.18.11-.38.17-.57.22-.2.05-.4.08-.6.08-.2,0-.41-.01-.61-.07Z"/>
            <path class="st7" d="M419.42,44.65c-.54.27-1.1.48-1.67.66-.29.1-.58.16-.87.23-.3.06-.58.12-.94.1-.11,0-.19-.1-.19-.21,0-.09.06-.16.14-.18h.01c.55-.17,1.09-.38,1.62-.61.26-.12.52-.25.77-.41.25-.15.49-.31.69-.52-.13.27-.36.48-.58.68-.23.19-.48.36-.74.52-.51.31-1.07.54-1.64.72l-.04-.39c.24.02.55-.03.83-.08l.87-.16c.58-.12,1.16-.25,1.75-.36Z"/>
            <path class="st6" d="M410.75,40.27c-.42.5-.99.87-1.58,1.16-.6.28-1.23.48-1.88.6l-.02-.39c.89.04,1.79.09,2.68-.08-.41.21-.87.32-1.32.38-.46.07-.91.09-1.38.08-.11,0-.19-.09-.19-.2,0-.09.07-.17.15-.18h.01c.61-.13,1.23-.31,1.82-.53.6-.21,1.17-.49,1.72-.84Z"/>
            <path class="st6" d="M408.58,46.12c-1.02.81-2.39,1.14-3.68,1.13l.06-.39c.6.16,1.27.15,1.92.08.33-.03.66-.08.98-.15.33-.07.66-.13.96-.28-.26.23-.59.34-.9.47-.32.11-.65.2-.99.27-.67.14-1.38.18-2.08-.01-.11-.03-.17-.14-.14-.24.02-.09.11-.15.2-.15.63,0,1.25-.04,1.87-.15.62-.11,1.22-.31,1.81-.58Z"/>
            <path class="st7" d="M400.91,55.73c.31-.29.7-.49,1.08-.67.39-.18.79-.3,1.2-.41.41-.1.82-.19,1.24-.23.42-.05.84-.08,1.26-.06-.8.28-1.61.47-2.4.68-.8.2-1.59.39-2.38.69Z"/>
            <path class="st7" d="M405.56,63.32c.32-.05.62-.08.91-.14.29-.07.59-.12.88-.2.58-.15,1.15-.33,1.77-.5-.23.23-.5.39-.78.54-.28.15-.58.26-.89.34-.61.15-1.29.18-1.89-.05Z"/>
            <path class="st6" d="M398.93,57.61c.06.3.09.59.15.88.06.28.12.56.19.84.15.55.34,1.09.58,1.65-.25-.18-.44-.43-.6-.7-.16-.26-.28-.55-.36-.85-.16-.6-.17-1.24.04-1.82Z"/>
            <path class="st7" d="M398.91,62.03c.16-.27.53-.35.82-.27.29.09.53.3.61.6-.3-.07-.5-.16-.72-.21-.21-.06-.4-.1-.71-.12Z"/>
            <path class="st14" d="M418.51,40.51c-.8.58-1.98.92-3.37.61,1.17-.8,2.34-1.35,3.25-1.23.04.2.08.41.13.62Z"/>
          </g>
          <path class="st1" d="M410.61,99.76c-22.99,0-41.78-18.01-43.03-40.69-.04.8-.07,1.61-.07,2.42,0,23.81,19.3,43.1,43.1,43.1s43.1-19.3,43.1-43.1c0-.81-.03-1.62-.07-2.42-1.26,22.68-20.04,40.69-43.03,40.69Z"/>
        </g>
        <g>
          <path class="st5" d="M93.44,53.21c1.05-2.37,3.23-3.82,6.46-3.82,4.48,0,7.51,3.76,6.52,8.7-.59,3.03-3.3,6.52-8.83,7.38.07,7.84,3.03,11.33.99,21.29-2.31,11.14-11.8,17.93-24.12,17.93s-19.64-8.7-17.6-17.93c1.12-5.27,5.87-11.33,13.58-11.33,3.95,0,7.25,1.98,8.3,5.01l-.46.53c-1.98-1.19-4.09-.2-4.35,1.58-.26,1.58.66,3.03,3.03,3.03,3.1,0,5.93-2.31,7.38-8.76.99-4.15,2.5-8.5,4.55-11.6-5.27-.86-9.16-2.5-13.91-2.5s-5.34,3.62-3.03,5.01l-.33.79c-6.79,0-11.6-5.34-10.02-12.19,1.32-5.8,5.93-9.56,12.13-9.56,8.83,0,14.43,4.28,19.71,6.46Z"/>
          <path class="st5" d="M112.62,98.42c-7.71,0-13.25-6.85-10.94-18.65,1.85-9.49,8.96-16.15,16.08-16.15,5.27,0,9.42,4.35,7.97,11.47-.92,4.61-3.23,6.85-9.09,8.7.92,1.19,2.44,1.98,4.68,1.98,1.71,0,3.95-.79,5.54-2.44h.46c-1.91,11.53-8.7,15.09-14.7,15.09ZM115.59,80.7c1.58-.79,3.16-2.17,3.62-3.76.53-1.71-.07-2.5-.66-2.5-1.12,0-2.24,1.78-2.83,4.61-.13.59-.13,1.12-.13,1.65Z"/>
          <path class="st5" d="M150.45,81.68c-.4,2.11-.4,3.29.92,3.29,1.12,0,1.58-.86,1.91-1.65h.46c-1.52,10.68-6.06,15.09-11.73,15.09-5.07,0-7.51-4.15-6.13-11.2l7.38-37.83h13.44l-6.26,32.29Z"/>
          <path class="st5" d="M153.36,79.05c1.78-8.96,8.76-15.42,16.61-15.42,9.75,0,15.29,8.11,13.18,19.38-1.65,8.96-8.63,15.42-16.61,15.42-9.75,0-15.29-8.11-13.18-19.38ZM170.49,79.71c.66-3.36.26-5.27-1.19-5.27-1.05,0-2.04,1.91-2.7,5.27-.72,3.36-.33,5.27,1.19,5.27,1.05,0,2.04-1.91,2.7-5.27Z"/>
          <path class="st5" d="M227.57,79.18c-.79,4.42-.26,5.8.86,5.8,1.38,0,4.48-6,7.18-19.11.92-4.61,2.04-16.74-1.38-17.73v-.53c8.83,0,18.52,4.28,15.42,21.62-3.69,20.43-14.63,29.92-29.46,29.92-8.37,0-14.04-6.33-10.94-16.54,2.31-7.51,8.24-15.82,11.99-19.77-1.71-2.37-3.49-3.16-5.47-3.16-2.64,0-3.89,1.32-4.15,2.97-.26,1.84,1.25,3.95,3.69,2.83l.2.46c-1.65,2.9-4.15,5.34-8.63,5.34-6.13,0-11.53-4.35-9.89-12.72,1.52-7.64,9.95-11.47,18.19-11.47,10.87,0,16.21,4.35,19.64,9.16-2.11,1.71-4.48,7.91-7.25,22.93Z"/>
          <path class="st5" d="M260,98.42c-7.71,0-13.25-6.85-10.94-18.65,1.85-9.49,8.96-16.15,16.08-16.15,5.27,0,9.42,4.35,7.97,11.47-.92,4.61-3.23,6.85-9.09,8.7.92,1.19,2.44,1.98,4.68,1.98,1.71,0,3.95-.79,5.54-2.44h.46c-1.91,11.53-8.7,15.09-14.7,15.09ZM262.96,80.7c1.58-.79,3.16-2.17,3.62-3.76.53-1.71-.07-2.5-.66-2.5-1.12,0-2.24,1.78-2.83,4.61-.13.59-.13,1.12-.13,1.65Z"/>
          <path class="st5" d="M291.24,64.55l-.79,3.95c2.24-3.69,5.87-4.88,9.03-4.88,5.07,0,7.84,4.42,6.13,11.2l-1.71,6.85c-.53,2.11-.26,3.29.99,3.29,1.12,0,1.58-.86,1.91-1.65h.46c-1.52,10.68-6.06,15.09-11.73,15.09-5.07,0-7.78-4.28-6.13-11.2l2.31-9.49c.53-2.11.33-3.3-.66-3.3-1.05,0-1.65.86-3.16,7.38l-3.03,15.68h-13.44l6.39-32.95h13.44Z"/>
          <path class="st5" d="M337.24,81.68c-.4,2.11-.4,3.29.92,3.29,1.12,0,1.58-.86,1.91-1.65h.46c-1.52,10.68-6.06,15.09-11.73,15.09-3.49,0-5.6-2.57-6.13-6.46-2.11,4.94-6.13,6.46-8.57,6.46-5.21,0-9.75-5.08-7.12-18.65,1.85-9.49,7.45-16.15,13.51-16.15,2.37,0,5.07,1.32,5.87,4.81l3.69-19.05h13.44l-6.26,32.29ZM321.75,84.98c.46,0,1.12-.53,1.78-2.04l1.38-7.12c-.07-.99-.46-1.38-.86-1.38-1.32,0-2.44,1.78-3.1,5.08-.59,3.03-.4,5.47.79,5.47Z"/>
          <path class="st5" d="M340.21,79.05c1.78-8.96,8.76-15.42,16.61-15.42,9.75,0,15.29,8.11,13.18,19.38-1.65,8.96-8.63,15.42-16.61,15.42-9.75,0-15.29-8.11-13.18-19.38ZM357.34,79.71c.66-3.36.26-5.27-1.19-5.27-1.05,0-2.04,1.91-2.7,5.27-.72,3.36-.33,5.27,1.19,5.27,1.05,0,2.04-1.91,2.7-5.27Z"/>
        </g>
      </g>
    </g>
  </g>
</svg>